<svg width="78" height="52" viewBox="0 0 78 52" fill="none" xmlns="http://www.w3.org/2000/svg">
<path d="M21.2991 28C21.4724 28 21.6124 28.06 21.7191 28.18C21.8391 28.2867 21.8991 28.4267 21.8991 28.6C21.8991 28.76 21.8391 28.9 21.7191 29.02C21.6124 29.1267 21.4724 29.18 21.2991 29.18H14.6391V34.2H20.3991C20.5724 34.2 20.7124 34.2533 20.8191 34.36C20.9391 34.4667 20.9991 34.6067 20.9991 34.78C20.9991 34.9533 20.9391 35.0933 20.8191 35.2C20.7124 35.3067 20.5724 35.36 20.3991 35.36H14.6391V41.4C14.6391 41.5733 14.5791 41.72 14.4591 41.84C14.3524 41.9467 14.2124 42 14.0391 42C13.8524 42 13.6991 41.9467 13.5791 41.84C13.4724 41.72 13.4191 41.5733 13.4191 41.4V28.6C13.4191 28.4267 13.4724 28.2867 13.5791 28.18C13.6991 28.06 13.8457 28 14.0191 28H21.2991ZM37.0514 35C37.0514 36.3733 36.7647 37.6067 36.1914 38.7C35.6181 39.7933 34.8247 40.6533 33.8114 41.28C32.7981 41.8933 31.6447 42.2 30.3514 42.2C29.0581 42.2 27.9047 41.8933 26.8914 41.28C25.8781 40.6533 25.0847 39.7933 24.5114 38.7C23.9381 37.6067 23.6514 36.3733 23.6514 35C23.6514 33.6133 23.9381 32.3733 24.5114 31.28C25.0847 30.1867 25.8781 29.3333 26.8914 28.72C27.9047 28.1067 29.0581 27.8 30.3514 27.8C31.6447 27.8 32.7981 28.1067 33.8114 28.72C34.8247 29.3333 35.6181 30.1867 36.1914 31.28C36.7647 32.3733 37.0514 33.6133 37.0514 35ZM35.7714 35C35.7714 33.84 35.5381 32.8067 35.0714 31.9C34.6181 30.98 33.9781 30.2667 33.1514 29.76C32.3381 29.2533 31.4047 29 30.3514 29C29.2981 29 28.3581 29.2533 27.5314 29.76C26.7181 30.2667 26.0781 30.98 25.6114 31.9C25.1581 32.8067 24.9314 33.84 24.9314 35C24.9314 36.16 25.1581 37.2 25.6114 38.12C26.0781 39.0267 26.7181 39.7333 27.5314 40.24C28.3581 40.7467 29.2981 41 30.3514 41C31.4047 41 32.3381 40.7467 33.1514 40.24C33.9781 39.7333 34.6181 39.0267 35.0714 38.12C35.5381 37.2 35.7714 36.16 35.7714 35ZM45.2239 28C45.9572 28 46.6172 28.1733 47.2039 28.52C47.7906 28.8533 48.2439 29.3267 48.5639 29.94C48.8972 30.54 49.0639 31.22 49.0639 31.98C49.0639 32.74 48.8972 33.4333 48.5639 34.06C48.2439 34.6867 47.7906 35.18 47.2039 35.54C46.6172 35.9 45.9572 36.08 45.2239 36.08H41.0839V41.4C41.0839 41.5733 41.0239 41.72 40.9039 41.84C40.7972 41.9467 40.6572 42 40.4839 42C40.3106 42 40.1639 41.9467 40.0439 41.84C39.9372 41.72 39.8839 41.5733 39.8839 41.4V28.6C39.8839 28.4267 39.9372 28.2867 40.0439 28.18C40.1639 28.06 40.3106 28 40.4839 28H45.2239ZM45.2239 34.92C45.9972 34.92 46.6239 34.64 47.1039 34.08C47.5839 33.52 47.8239 32.82 47.8239 31.98C47.8239 31.1533 47.5839 30.48 47.1039 29.96C46.6239 29.44 45.9972 29.18 45.2239 29.18H41.0839V34.92H45.2239ZM63.998 28C64.158 28 64.2913 28.06 64.398 28.18C64.518 28.2867 64.578 28.4267 64.578 28.6V41.4C64.578 41.5733 64.518 41.72 64.398 41.84C64.278 41.9467 64.1313 42 63.958 42C63.7713 42 63.618 41.9467 63.498 41.84C63.378 41.72 63.318 41.5733 63.318 41.4V30.4L58.618 37.52C58.4846 37.6933 58.3313 37.7733 58.158 37.76H58.118C57.958 37.76 57.8113 37.68 57.678 37.52L52.978 30.36V41.4C52.978 41.5733 52.918 41.72 52.798 41.84C52.6913 41.9467 52.5513 42 52.378 42C52.2046 42 52.0646 41.9467 51.958 41.84C51.8513 41.72 51.798 41.5733 51.798 41.4V28.6C51.798 28.44 51.8513 28.3 51.958 28.18C52.078 28.06 52.2246 28 52.398 28C52.4913 28 52.5913 28.0267 52.698 28.08C52.8046 28.12 52.8846 28.18 52.938 28.26L58.178 36.12L63.458 28.26C63.6046 28.06 63.7846 27.9733 63.998 28Z" fill="black"/>
<path d="M36 11C36 11 40.2857 20 47.25 20C52.0821 20 56 15.9688 56 11C56 6.03125 52.0821 2 47.25 2C44.6277 2 42.1911 3.28906 40.2857 5M36 11C36 11 31.7143 2 24.75 2C19.9179 2 16 6.03125 16 11C16 15.9688 19.9179 20 24.75 20C27.4286 20 29.7902 18.7644 31.7143 17L36 11Z" stroke="#582E90" stroke-width="3" stroke-miterlimit="10" stroke-linecap="round"/>
</svg>
